<?xml version="1.0" standalone="no"?>
<!DOCTYPE svg PUBLIC "-//W3C//DTD SVG 20010904//EN"
 "http://www.w3.org/TR/2001/REC-SVG-20010904/DTD/svg10.dtd">
<svg version="1.0" xmlns="http://www.w3.org/2000/svg"
 width="200.000000pt" height="200.000000pt" viewBox="0 0 200.000000 200.000000"
 preserveAspectRatio="xMidYMid meet">

<g transform="translate(0.000000,200.000000) scale(0.100000,-0.100000)"
fill="#000000" stroke="none">
<path d="M873 1370 c62 -109 115 -199 119 -200 6 0 228 384 228 395 0 3 -103
5 -229 5 l-229 0 111 -200z"/>
<path d="M250 1050 l0 -342 118 3 c104 4 123 7 173 32 66 32 132 99 162 165
18 38 22 66 22 142 0 84 -3 102 -28 151 -32 66 -99 132 -165 162 -37 17 -72
22 -164 25 l-118 4 0 -342z"/>
<path d="M1495 1376 c-62 -20 -98 -41 -142 -86 -164 -163 -118 -440 89 -546
47 -24 67 -28 171 -32 l117 -4 0 341 0 341 -97 -1 c-54 0 -116 -6 -138 -13z"/>
<path d="M952 863 c-77 -133 -192 -336 -192 -340 0 -1 104 -3 231 -3 216 0
231 1 225 18 -10 24 -217 392 -222 392 -1 0 -21 -30 -42 -67z"/>
<path d="M250 375 l0 -65 40 0 c68 0 101 55 64 108 -12 17 -25 22 -60 22 l-44
0 0 -65z m74 29 c27 -26 17 -59 -19 -66 -16 -2 -21 3 -23 25 -6 54 12 71 42
41z"/>
<path d="M380 435 c0 -3 8 -17 17 -31 15 -24 15 -27 0 -54 -21 -34 -21 -40 -2
-40 8 0 19 9 26 21 l11 21 14 -21 c14 -19 51 -31 42 -13 -2 4 -10 19 -17 34
-12 24 -12 31 3 52 9 14 16 28 16 31 0 11 -24 4 -43 -12 -18 -17 -19 -17 -28
0 -9 15 -39 25 -39 12z"/>
<path d="M517 422 c-39 -42 -8 -115 48 -114 25 0 65 27 65 44 0 13 -22 9 -41
-8 -25 -23 -61 -2 -57 33 4 38 32 52 57 29 25 -23 45 -13 31 15 -14 26 -80 26
-103 1z"/>
<path d="M696 415 c-11 -17 -14 -30 -8 -34 6 -3 12 -20 14 -36 2 -22 9 -31 26
-33 12 -2 22 1 22 7 0 6 -4 11 -10 11 -5 0 -10 11 -10 25 0 14 5 25 10 25 15
0 12 12 -8 38 l-18 24 -18 -27z"/>
<path d="M990 375 c0 -51 3 -65 15 -65 11 0 15 11 15 36 0 28 3 35 18 32 11
-2 18 -14 20 -36 5 -46 27 -35 26 13 -2 40 -18 58 -46 49 -13 -4 -18 0 -18 15
0 12 -7 21 -15 21 -12 0 -15 -14 -15 -65z"/>
<path d="M1340 375 c0 -51 3 -65 15 -65 12 0 15 14 15 65 0 51 -3 65 -15 65
-12 0 -15 -14 -15 -65z"/>
<path d="M775 390 c-35 -39 11 -103 58 -78 28 14 20 28 -13 22 -19 -4 -30 -2
-30 5 0 6 16 11 35 11 28 0 35 4 35 20 0 19 -27 40 -53 40 -8 0 -22 -9 -32
-20z m50 -10 c3 -5 -3 -10 -15 -10 -12 0 -18 5 -15 10 3 6 10 10 15 10 5 0 12
-4 15 -10z"/>
<path d="M890 390 c-23 -23 -25 -39 -7 -64 23 -31 102 -18 83 13 -5 7 -13 7
-26 -1 -24 -15 -46 2 -36 27 4 13 13 15 36 10 34 -8 41 8 11 25 -28 14 -38 13
-61 -10z"/>
<path d="M1104 401 c-2 -2 -4 -24 -4 -48 0 -32 4 -43 15 -43 8 0 15 9 15 19 0
30 11 51 26 51 9 0 14 -12 14 -35 0 -24 5 -35 15 -35 19 0 21 75 3 87 -13 8
-76 11 -84 4z"/>
<path d="M1236 394 c-24 -24 -20 -61 9 -80 23 -15 27 -15 50 0 42 28 24 96
-25 96 -10 0 -26 -7 -34 -16z m52 -36 c-2 -13 -10 -23 -18 -23 -8 0 -16 10
-18 23 -3 17 2 22 18 22 16 0 21 -5 18 -22z"/>
<path d="M1408 398 c-32 -25 -27 -75 8 -89 56 -21 99 45 56 84 -22 20 -42 21
-64 5z m49 -34 c3 -8 1 -20 -5 -26 -15 -15 -43 8 -35 28 7 19 32 18 40 -2z"/>
<path d="M1514 384 c-24 -36 -6 -74 36 -74 16 0 30 -5 30 -10 0 -16 -30 -24
-43 -11 -15 15 -27 14 -27 -3 0 -27 69 -36 89 -12 7 8 11 38 9 71 l-3 57 -38
4 c-31 2 -40 -1 -53 -22z m64 -27 c4 -20 -25 -34 -40 -19 -15 15 -1 44 19 40
10 -2 19 -11 21 -21z"/>
<path d="M1627 404 c-3 -3 4 -28 15 -55 21 -49 21 -50 2 -64 -22 -16 -14 -29
14 -21 20 7 76 132 63 140 -11 7 -25 -6 -38 -34 l-11 -25 -7 27 c-6 25 -27 42
-38 32z"/>
<path d="M640 325 c0 -8 9 -15 20 -15 11 0 20 7 20 15 0 8 -9 15 -20 15 -11 0
-20 -7 -20 -15z"/>
</g>
</svg>
